<?xml version="1.0" encoding="utf-8"?>
<!-- Generator: Adobe Illustrator 22.0.1, SVG Export Plug-In . SVG Version: 6.00 Build 0)  -->
<svg version="1.1" id="图层_1" xmlns="http://www.w3.org/2000/svg" xmlns:xlink="http://www.w3.org/1999/xlink" x="0px" y="0px"
	 viewBox="0 0 706 600" style="enable-background:new 0 0 706 600;" xml:space="preserve">
<style type="text/css">
	.st0{fill:#EF8F91;}
	.st1{fill:#88BEE5;}
	.st2{fill:#8CC2E9;}
	.st3{fill:none;stroke:#000000;stroke-width:3;stroke-miterlimit:10;}
</style>
<polygon class="st0" points="337.2,168.9 278.4,168.9 366.5,433.1 395.9,345 "/>
<polygon class="st0" points="513.9,169 455.2,169 543.3,433.3 572.7,345.2 "/>
<polygon class="st1" points="160.9,168.9 102.1,168.9 190.2,433.1 219.6,345 "/>
<ellipse transform="matrix(3.327948e-02 -0.9994 0.9994 3.327948e-02 -440.0125 657.2168)" class="st2" cx="119.7" cy="556.1" rx="22.7" ry="22.7"/>
<circle class="st0" cx="609.6" cy="157.7" r="22.7"/>
<polyline class="st3" points="226.3,326.8 167.6,150.7 108.9,150.7 197,414.9 "/>
<circle class="st3" cx="130.1" cy="543.5" r="22.7"/>
<circle class="st3" cx="615.9" cy="143.2" r="22.7"/>
<polyline class="st3" points="402.4,326.8 343.8,150.7 285,150.7 152,549.7 "/>
<polyline class="st3" points="578.7,326.8 519.9,150.7 461.2,150.7 373.1,414.9 285,150.7 "/>
<polyline class="st3" points="637.3,150.7 549.3,414.9 461.2,150.7 "/>
</svg>
